<mxfile host="app.diagrams.net" modified="2023-03-07T03:21:13.264Z" agent="5.0 (Windows)" etag="frqc8PCK950Sc04BDjUv" version="20.8.16" type="github">
  <diagram name="use case diagram" id="YVnNYpdFjV6ruI-kefn4">
    <mxGraphModel dx="1050" dy="577" grid="1" gridSize="10" guides="1" tooltips="1" connect="1" arrows="1" fold="1" page="1" pageScale="1" pageWidth="1169" pageHeight="827" math="0" shadow="0">
      <root>
        <mxCell id="0" />
        <mxCell id="1" parent="0" />
        <mxCell id="O74bDhjsWetpctK2Eii6-7" style="rounded=0;orthogonalLoop=1;jettySize=auto;html=1;entryX=0;entryY=0.5;entryDx=0;entryDy=0;" edge="1" parent="1" source="O74bDhjsWetpctK2Eii6-1" target="O74bDhjsWetpctK2Eii6-2">
          <mxGeometry relative="1" as="geometry" />
        </mxCell>
        <mxCell id="O74bDhjsWetpctK2Eii6-8" style="edgeStyle=none;rounded=0;orthogonalLoop=1;jettySize=auto;html=1;entryX=0;entryY=0.5;entryDx=0;entryDy=0;" edge="1" parent="1" source="O74bDhjsWetpctK2Eii6-1" target="O74bDhjsWetpctK2Eii6-3">
          <mxGeometry relative="1" as="geometry" />
        </mxCell>
        <mxCell id="O74bDhjsWetpctK2Eii6-9" style="edgeStyle=none;rounded=0;orthogonalLoop=1;jettySize=auto;html=1;entryX=0;entryY=0.5;entryDx=0;entryDy=0;" edge="1" parent="1" source="O74bDhjsWetpctK2Eii6-1" target="O74bDhjsWetpctK2Eii6-4">
          <mxGeometry relative="1" as="geometry" />
        </mxCell>
        <mxCell id="O74bDhjsWetpctK2Eii6-10" style="edgeStyle=none;rounded=0;orthogonalLoop=1;jettySize=auto;html=1;entryX=0;entryY=0.5;entryDx=0;entryDy=0;" edge="1" parent="1" source="O74bDhjsWetpctK2Eii6-1" target="O74bDhjsWetpctK2Eii6-5">
          <mxGeometry relative="1" as="geometry" />
        </mxCell>
        <mxCell id="O74bDhjsWetpctK2Eii6-1" value="User" style="shape=umlActor;verticalLabelPosition=bottom;verticalAlign=top;html=1;outlineConnect=0;" vertex="1" parent="1">
          <mxGeometry x="70" y="270" width="30" height="60" as="geometry" />
        </mxCell>
        <mxCell id="O74bDhjsWetpctK2Eii6-2" value="&lt;div&gt;login&lt;/div&gt;" style="ellipse;whiteSpace=wrap;html=1;" vertex="1" parent="1">
          <mxGeometry x="280" y="200" width="120" height="40" as="geometry" />
        </mxCell>
        <mxCell id="O74bDhjsWetpctK2Eii6-3" value="top up" style="ellipse;whiteSpace=wrap;html=1;" vertex="1" parent="1">
          <mxGeometry x="280" y="260" width="120" height="40" as="geometry" />
        </mxCell>
        <mxCell id="O74bDhjsWetpctK2Eii6-4" value="split amount" style="ellipse;whiteSpace=wrap;html=1;" vertex="1" parent="1">
          <mxGeometry x="280" y="320" width="120" height="40" as="geometry" />
        </mxCell>
        <mxCell id="O74bDhjsWetpctK2Eii6-5" value="transfer" style="ellipse;whiteSpace=wrap;html=1;" vertex="1" parent="1">
          <mxGeometry x="280" y="380" width="120" height="40" as="geometry" />
        </mxCell>
        <mxCell id="O74bDhjsWetpctK2Eii6-13" style="edgeStyle=none;rounded=0;orthogonalLoop=1;jettySize=auto;html=1;entryX=0;entryY=0.5;entryDx=0;entryDy=0;" edge="1" parent="1" source="O74bDhjsWetpctK2Eii6-6" target="O74bDhjsWetpctK2Eii6-11">
          <mxGeometry relative="1" as="geometry" />
        </mxCell>
        <mxCell id="O74bDhjsWetpctK2Eii6-14" style="edgeStyle=none;rounded=0;orthogonalLoop=1;jettySize=auto;html=1;entryX=0;entryY=0.5;entryDx=0;entryDy=0;" edge="1" parent="1" source="O74bDhjsWetpctK2Eii6-6" target="O74bDhjsWetpctK2Eii6-12">
          <mxGeometry relative="1" as="geometry" />
        </mxCell>
        <mxCell id="O74bDhjsWetpctK2Eii6-15" style="edgeStyle=none;rounded=0;orthogonalLoop=1;jettySize=auto;html=1;entryX=0;entryY=0.5;entryDx=0;entryDy=0;" edge="1" parent="1" source="O74bDhjsWetpctK2Eii6-6" target="O74bDhjsWetpctK2Eii6-2">
          <mxGeometry relative="1" as="geometry" />
        </mxCell>
        <mxCell id="O74bDhjsWetpctK2Eii6-6" value="&lt;div&gt;Admin&lt;/div&gt;" style="shape=umlActor;verticalLabelPosition=bottom;verticalAlign=top;html=1;outlineConnect=0;" vertex="1" parent="1">
          <mxGeometry x="60" y="100" width="30" height="60" as="geometry" />
        </mxCell>
        <mxCell id="O74bDhjsWetpctK2Eii6-11" value="add promo" style="ellipse;whiteSpace=wrap;html=1;" vertex="1" parent="1">
          <mxGeometry x="280" y="80" width="120" height="40" as="geometry" />
        </mxCell>
        <mxCell id="O74bDhjsWetpctK2Eii6-12" value="approve withdraw" style="ellipse;whiteSpace=wrap;html=1;" vertex="1" parent="1">
          <mxGeometry x="280" y="140" width="120" height="40" as="geometry" />
        </mxCell>
      </root>
    </mxGraphModel>
  </diagram>
</mxfile>
